<svg viewBox="0 0 24 24" xmlns="http://www.w3.org/2000/svg" width="16" height="16">
  <path fill="#fef5e4" d="M23.977 6.416c-.105 2.338-1.739 5.543-1.739 5.543s-1.574 3.205-1.638 5.604c2.4 0 4.334-1.817 4.334-1.817 0-1.337-.522-2.3-1.913-2.3-.781 0-1.457.314-1.951.826-.469.502-.764 1.2-.764 1.2l.044-1.686s.348.684.879.967c.575.306 1.353.214 1.353.214C22.178 14.97 22 12.774 22 12.774c-.026-2.054.764-3.907 1.977-4.909 1.213-1.003 2.668-1.244 3.733-.695.426.222.702.501.954.972l.046-.001c-.021-.023.003-.715.003-1.442-.001-.726-.025-1.436-.15-1.647-.105-.18-.395-.309-.825-.309l.019.002z"/>
  <path fill="#fef5e4" d="M12.002 0C5.372 0 0 5.372 0 12s5.372 12 12.002 12c6.627 0 12-5.372 12-12S18.629 0 12.002 0zM9.602 17.309v-9.31l8.339 4.655-8.339 4.655z"/>
</svg>
